<svg id="Capa_1" data-name="Capa 1" xmlns="http://www.w3.org/2000/svg" width="273.79" height="121.17" viewBox="0 0 273.79 121.17">
  <defs>
    <style>
      .cls-1 {
        fill: #0a0c13;
      }
    </style>
  </defs>
  <g>
    <g>
      <path class="cls-1" d="M94.46,254.92a17.79,17.79,0,0,1-12.91,4.94c-12.82,0-17.91-8.26-18-17.43,0-8.68,5.62-17.8,18-17.8a17.3,17.3,0,0,1,12.34,5.18l-4.71,4.66a11,11,0,0,0-7.63-2.79c-7.63,0-10.61,5.91-10.56,10.8S73.68,253,81.55,253a12.68,12.68,0,0,0,8.25-3.22Z" transform="translate(-63.59 -138.93)"/>
      <path class="cls-1" d="M114.24,259.81c-10.76,0-18.15-6.67-18.15-17.61s7.39-17.62,18.15-17.62,18.14,6.67,18.14,17.62S125,259.81,114.24,259.81Zm0-28.51a10.54,10.54,0,0,0-10.8,10.9A10.39,10.39,0,0,0,114.24,253c6.52,0,10.8-4.6,10.8-10.84S120.76,231.3,114.24,231.3Z" transform="translate(-63.59 -138.93)"/>
      <path class="cls-1" d="M138,259V225.39h7.44V259Z" transform="translate(-63.59 -138.93)"/>
      <path class="cls-1" d="M176.25,247.24l-.48-10.56V225.39h7.54V259h-6.43l-16.71-21.51.29,11V259h-7.59V225.39h6.44Z" transform="translate(-63.59 -138.93)"/>
      <path class="cls-1" d="M210.67,233.51c-1.87-2-5.14-2.84-7.78-2.84-3.31,0-6,1.4-6,3.7,0,3.07,2.93,3.65,7.25,4,6.62.58,12.91,3.12,12.91,10.9,0,7.49-6.91,10.75-14.16,10.8-5.81,0-11.86-2.21-14.69-6.91l4.47-4.66a13.35,13.35,0,0,0,10.27,4.75c4,0,6.72-1.58,6.72-4,.05-2.83-2.21-4.13-6.77-4.51-7.1-.67-13.44-2.45-13.34-10.37,0-6.67,6.38-10.23,13.29-10.23,5.19,0,9.08,1.16,12.53,5.19Z" transform="translate(-63.59 -138.93)"/>
      <path class="cls-1" d="M247.77,259H222.18V225.39H247.1v6.87H229.53v6.48h16.56v6.58H229.53v6.76h18.24Z" transform="translate(-63.59 -138.93)"/>
      <path class="cls-1" d="M283.48,259h-8.3l-8.59-11h-5.43v11h-7.49V225.39h15.94c8.11,0,12.43,5.43,12.43,11.33-.05,4.37-1.34,8.26-7.77,10.56l9.21,11.14Zm-22.32-27.17v9.79h8.55a4.67,4.67,0,0,0,4.94-4.71,4.94,4.94,0,0,0-5-5.08Z" transform="translate(-63.59 -138.93)"/>
    </g>
    <g>
      <path class="cls-1" d="M299.09,244.11c-2.12,0-4.39.83-4.39,2.87,0,1.81,2.08,2.34,4.54,2.74,3.34.53,6.64,1.2,6.64,5s-3.61,5-6.81,5c-3,0-5.78-1.08-7.07-3.87l1.72-1a6.05,6.05,0,0,0,5.37,2.94c2,0,4.74-.64,4.74-3.11,0-2.07-2.32-2.67-4.83-3.05-3.23-.51-6.36-1.25-6.36-4.64s3.51-4.69,6.41-4.69c2.48,0,4.85.5,6.33,3l-1.58,1C302.9,244.8,301,244.13,299.09,244.11Z" transform="translate(-63.59 -138.93)"/>
      <path class="cls-1" d="M315.32,253.31h-4.06v6h-2.08V242.6h7.6a5.27,5.27,0,0,1,5.67,5.36,4.84,4.84,0,0,1-4.81,5.18l5.52,6.19h-2.63Zm5.05-5.31a3.44,3.44,0,0,0-3.59-3.53h-5.52v7h5.43C319.2,251.45,320.37,249.89,320.37,248Z" transform="translate(-63.59 -138.93)"/>
      <path class="cls-1" d="M328.28,257.4h9.11v1.93H326.2V242.6h2.08Z" transform="translate(-63.59 -138.93)"/>
    </g>
    <path class="cls-1" d="M173.54,138.93a35.65,35.65,0,1,0,35.65,35.65A35.65,35.65,0,0,0,173.54,138.93Zm0,51.07a15.42,15.42,0,0,0,14.18-9.33l9.94,4.27a26.24,26.24,0,1,1,0-20.73l-9.94,4.28A15.43,15.43,0,1,0,173.56,190Z" transform="translate(-63.59 -138.93)"/>
  </g>
</svg>
