<svg id="Capa_1" data-name="Capa 1" xmlns="http://www.w3.org/2000/svg" width="219.89" height="121.17" viewBox="0 0 219.89 121.17">
  <defs>
    <style>
      .cls-1 {
        fill: #0a0c13;
      }

      .cls-2 {
        fill: #ee7d19;
      }

      .cls-3 {
        fill: #fff;
      }
    </style>
  </defs>
  <g>
    <path class="cls-1" d="M93.63,255.56a17.78,17.78,0,0,1-12.92,4.95c-12.81,0-17.9-8.26-17.95-17.43,0-8.69,5.62-17.81,17.95-17.81a17.31,17.31,0,0,1,12.34,5.19l-4.7,4.65a11,11,0,0,0-7.64-2.78c-7.63,0-10.6,5.9-10.56,10.8s2.69,10.46,10.56,10.46A12.77,12.77,0,0,0,89,250.38Z" transform="translate(-62.76 -139.57)"/>
    <path class="cls-1" d="M113.4,260.46c-10.75,0-18.14-6.67-18.14-17.62s7.39-17.62,18.14-17.62,18.15,6.68,18.15,17.62S124.15,260.46,113.4,260.46Zm0-28.52a10.55,10.55,0,0,0-10.8,10.9c0,6.29,4.42,10.85,10.8,10.85s10.8-4.61,10.8-10.85S119.93,231.94,113.4,231.94Z" transform="translate(-62.76 -139.57)"/>
    <path class="cls-1" d="M137.11,259.64V226h7.44v33.6Z" transform="translate(-62.76 -139.57)"/>
    <path class="cls-1" d="M175.42,247.88l-.48-10.56V226h7.53v33.6H176l-16.7-21.5.28,11v10.46H152V226h6.43Z" transform="translate(-62.76 -139.57)"/>
    <path class="cls-1" d="M209.83,234.15c-1.87-2-5.13-2.83-7.77-2.83-3.32,0-6,1.39-6,3.7,0,3.07,2.92,3.64,7.24,4,6.63.57,12.92,3.12,12.92,10.9,0,7.48-6.92,10.75-14.16,10.8-5.81,0-11.86-2.21-14.69-6.92l4.46-4.65a13.37,13.37,0,0,0,10.27,4.75c4,0,6.72-1.58,6.72-4,.05-2.84-2.2-4.13-6.76-4.52-7.11-.67-13.45-2.44-13.35-10.37,0-6.67,6.39-10.22,13.3-10.22,5.18,0,9.07,1.15,12.53,5.18Z" transform="translate(-62.76 -139.57)"/>
    <path class="cls-1" d="M246.94,259.64H221.35V226h24.91v6.86H228.69v6.48h16.57V246H228.69v6.77h18.25Z" transform="translate(-62.76 -139.57)"/>
    <path class="cls-1" d="M282.65,259.64h-8.31l-8.59-11h-5.42v11h-7.49V226h15.94c8.11,0,12.43,5.42,12.43,11.33,0,4.37-1.35,8.26-7.78,10.56l9.22,11.14Zm-22.32-27.17v9.8h8.54a4.67,4.67,0,0,0,4.95-4.71,5,5,0,0,0-5-5.09Z" transform="translate(-62.76 -139.57)"/>
  </g>
  <g>
    <circle class="cls-2" cx="109.94" cy="35.65" r="35.65"/>
    <path class="cls-3" d="M186.9,181.31a15.43,15.43,0,1,1,0-12.18l9.94-4.27a26.24,26.24,0,1,0,0,20.72Z" transform="translate(-62.76 -139.57)"/>
  </g>
</svg>
