<svg id="Capa_1" data-name="Capa 1" xmlns="http://www.w3.org/2000/svg" width="273.79" height="121.17" viewBox="0 0 273.79 121.17">
  <defs>
    <style>
      .cls-1 {
        fill: #fff;
      }

      .cls-2 {
        fill: #ee7c13;
      }
    </style>
  </defs>
  <g>
    <path class="cls-1" d="M80.15,255.56a17.77,17.77,0,0,1-12.91,4.95c-12.82,0-17.91-8.26-18-17.43,0-8.69,5.62-17.81,18-17.81a17.31,17.31,0,0,1,12.34,5.19l-4.71,4.65a11,11,0,0,0-7.63-2.78c-7.63,0-10.61,5.9-10.56,10.8s2.69,10.46,10.56,10.46a12.72,12.72,0,0,0,8.25-3.21Z" transform="translate(-49.28 -139.57)"/>
    <path class="cls-1" d="M99.93,260.46c-10.76,0-18.15-6.67-18.15-17.62s7.39-17.62,18.15-17.62,18.14,6.68,18.14,17.62S110.68,260.46,99.93,260.46Zm0-28.52a10.54,10.54,0,0,0-10.8,10.9c0,6.29,4.41,10.85,10.8,10.85s10.8-4.61,10.8-10.85S106.45,231.94,99.93,231.94Z" transform="translate(-49.28 -139.57)"/>
    <path class="cls-1" d="M123.64,259.64V226h7.44v33.6Z" transform="translate(-49.28 -139.57)"/>
    <path class="cls-1" d="M161.94,247.88l-.48-10.56V226H169v33.6h-6.43l-16.71-21.5.29,11v10.46h-7.59V226H145Z" transform="translate(-49.28 -139.57)"/>
    <path class="cls-1" d="M196.36,234.15c-1.88-2-5.14-2.83-7.78-2.83-3.31,0-6,1.39-6,3.7,0,3.07,2.93,3.64,7.25,4,6.62.57,12.91,3.12,12.91,10.9,0,7.48-6.91,10.75-14.16,10.8-5.81,0-11.86-2.21-14.69-6.92l4.47-4.65a13.35,13.35,0,0,0,10.27,4.75c4,0,6.72-1.58,6.72-4,.05-2.84-2.21-4.13-6.77-4.52-7.1-.67-13.44-2.44-13.35-10.37.05-6.67,6.39-10.22,13.3-10.22,5.19,0,9.08,1.15,12.53,5.18Z" transform="translate(-49.28 -139.57)"/>
    <path class="cls-1" d="M233.46,259.64H207.87V226h24.92v6.86H215.22v6.48h16.56V246H215.22v6.77h18.24Z" transform="translate(-49.28 -139.57)"/>
    <path class="cls-1" d="M269.17,259.64h-8.3l-8.59-11h-5.43v11h-7.49V226H255.3c8.11,0,12.43,5.42,12.43,11.33-.05,4.37-1.34,8.26-7.77,10.56l9.21,11.14Zm-22.32-27.17v9.8h8.55a4.67,4.67,0,0,0,4.94-4.71,5,5,0,0,0-5-5.09Z" transform="translate(-49.28 -139.57)"/>
    <path class="cls-1" d="M284.78,244.75c-2.12,0-4.39.84-4.39,2.87,0,1.82,2.08,2.34,4.54,2.75,3.34.53,6.64,1.2,6.64,5s-3.61,5-6.81,5c-3,0-5.78-1.07-7.07-3.87l1.72-1a6.07,6.07,0,0,0,5.37,2.94c2,0,4.74-.65,4.74-3.11,0-2.08-2.32-2.68-4.83-3.06-3.23-.5-6.36-1.24-6.36-4.64s3.51-4.68,6.41-4.68c2.48,0,4.85.5,6.33,3l-1.58,1C288.59,245.45,286.65,244.78,284.78,244.75Z" transform="translate(-49.28 -139.57)"/>
    <path class="cls-1" d="M301,254H297v6h-2.08V243.25h7.6a5.27,5.27,0,0,1,5.67,5.35,4.85,4.85,0,0,1-4.81,5.19l5.52,6.19h-2.63Zm5.05-5.31a3.45,3.45,0,0,0-3.59-3.54H297v7h5.43C304.89,252.09,306.06,250.54,306.06,248.65Z" transform="translate(-49.28 -139.57)"/>
    <path class="cls-1" d="M314,258h9.1V260H311.89V243.25H314Z" transform="translate(-49.28 -139.57)"/>
  </g>
  <g>
    <circle class="cls-2" cx="136.9" cy="35.65" r="35.65"/>
    <path class="cls-1" d="M200.38,181.31a15.43,15.43,0,1,1,0-12.18l9.94-4.27a26.24,26.24,0,1,0,0,20.72Z" transform="translate(-49.28 -139.57)"/>
  </g>
</svg>
