<svg id="Capa_1" data-name="Capa 1" xmlns="http://www.w3.org/2000/svg" width="45.39" height="17.43" viewBox="0 0 45.39 17.43">
  <defs>
    <style>
      .cls-1 {
        fill: #0a0c13;
      }
    </style>
  </defs>
  <g>
    <path class="cls-1" d="M298.26,244.75c-2.13,0-4.4.84-4.4,2.87,0,1.82,2.08,2.34,4.54,2.75,3.35.53,6.65,1.2,6.65,5s-3.61,5-6.81,5c-3,0-5.79-1.07-7.08-3.87l1.72-1a6.09,6.09,0,0,0,5.38,2.94c2,0,4.73-.65,4.73-3.11,0-2.08-2.32-2.68-4.83-3.06-3.22-.5-6.35-1.24-6.35-4.64s3.51-4.68,6.4-4.68c2.49,0,4.85.5,6.34,3l-1.58,1C302.06,245.45,300.12,244.78,298.26,244.75Z" transform="translate(-291.16 -242.89)"/>
    <path class="cls-1" d="M314.49,254h-4.06v6h-2.08V243.25H316a5.26,5.26,0,0,1,5.66,5.35,4.84,4.84,0,0,1-4.8,5.19l5.52,6.19H319.7Zm5-5.31a3.44,3.44,0,0,0-3.58-3.54h-5.52v7h5.42C318.36,252.09,319.53,250.54,319.53,248.65Z" transform="translate(-291.16 -242.89)"/>
    <path class="cls-1" d="M327.44,258h9.11V260H325.36V243.25h2.08Z" transform="translate(-291.16 -242.89)"/>
  </g>
</svg>
