<svg id="Capa_1" data-name="Capa 1" xmlns="http://www.w3.org/2000/svg" width="286.44" height="172.98" viewBox="0 0 286.44 172.98">
  <defs>
    <style>
      .cls-1 {
        fill: #ef7c19;
      }
    </style>
  </defs>
  <path class="cls-1" d="M45.42,78.59a6,6,0,0,0-6,6v22.06a6,6,0,0,0,12,0V84.59A6,6,0,0,0,45.42,78.59Z" transform="translate(0 0.02)"/>
  <path class="cls-1" d="M69.88,63.88a6,6,0,0,0-6,6v36.77a6,6,0,0,0,12,0V69.88A6,6,0,0,0,69.88,63.88Z" transform="translate(0 0.02)"/>
  <path class="cls-1" d="M94.34,42.08a6,6,0,0,0-6,6v58.57a6,6,0,0,0,12,0V48.08A6,6,0,0,0,94.34,42.08Z" transform="translate(0 0.02)"/>
  <path class="cls-1" d="M118.81,27.11a6,6,0,0,0-6,6v73.54a6,6,0,0,0,12,0V33.11A6,6,0,0,0,118.81,27.11Z" transform="translate(0 0.02)"/>
  <path class="cls-1" d="M281.73,140.26l-43-43a42,42,0,0,0-1.11-34.13V16a16,16,0,0,0-16-16H16A16,16,0,0,0,0,16V130.66a16,16,0,0,0,16,16H81V161H63.76a6,6,0,1,0,0,12H173.85a6,6,0,0,0,0-12H156.57V146.63h65.07a16,16,0,0,0,13.48-7.45L258.94,163a16.14,16.14,0,0,0,22.79,0h0a16.14,16.14,0,0,0,0-22.79Zm-8.49,14.3a4.11,4.11,0,0,1-5.81,0h0L226.7,113.79l5.82-5.82,40.72,40.72a4.11,4.11,0,0,1,0,5.81h0Zm-51.6-19.88H16a4,4,0,0,1-4-4V16a4,4,0,0,1,4-4H221.64a4,4,0,0,1,4,4V48.33A41.72,41.72,0,1,0,216,120l9.66,9.66v1a4,4,0,0,1-4,4ZM93,161V146.63h51.53V161ZM221.09,102.4a27.77,27.77,0,1,1,.32-.28l-.28.28Z" transform="translate(0 0.02)"/>
  <path class="cls-1" d="M199.31,94.43A13.11,13.11,0,0,1,187,80.58a6,6,0,0,0-12-.73h0a25.14,25.14,0,0,0,23.53,26.56H199a6,6,0,0,0,.36-12Z" transform="translate(0 0.02)"/>
</svg>
