<svg id="Capa_1" data-name="Capa 1" xmlns="http://www.w3.org/2000/svg" width="23.55" height="19.08" viewBox="0 0 23.55 19.08">
  <defs>
    <style>
      .cls-1 {
        fill: #fff;
      }
    </style>
  </defs>
  <g id="Layer_1">
    <path class="cls-1" d="M11,4c1.33.35,2.15.92,2.17,1.64v5.07c0,1-1.4,1.46-2.17,1.67a19.64,19.64,0,0,1-8.63,0C1.06,12,.24,11.45.23,10.73V5.64c0-.72.83-1.29,2.16-1.64A19.64,19.64,0,0,1,11,4Zm6.19,3.3a.59.59,0,0,1,1-.66l.49.71,2-2.38a.59.59,0,0,1,.9.76l-2.48,3a.59.59,0,0,1-.93,0ZM19.4,2.46A4.38,4.38,0,1,1,15,6.84,4.38,4.38,0,0,1,19.4,2.46Zm0,1.18a3.2,3.2,0,1,0,3.2,3.2A3.2,3.2,0,0,0,19.4,3.64Zm.41,15.76V18.19a5.72,5.72,0,0,1-1,.34,19.34,19.34,0,0,1-8.63,0,5.44,5.44,0,0,1-1-.34V19.4c0,.12.49.31,1.29.52a18.44,18.44,0,0,0,8,0C19.31,19.71,19.81,19.52,19.81,19.4Zm0-2.53V15.66a5.71,5.71,0,0,1-1,.35,19.64,19.64,0,0,1-8.63,0,5.43,5.43,0,0,1-1-.35v1.21c0,.13.49.32,1.29.53a18.44,18.44,0,0,0,8,0C19.31,17.19,19.81,17,19.81,16.87ZM21,19.4c0,1-1.4,1.46-2.16,1.66a19.64,19.64,0,0,1-8.63,0C9.42,20.86,8,20.37,8,19.4V14.32c0-.72.84-1.29,2.17-1.64a19.64,19.64,0,0,1,8.63,0C20.14,13,21,13.6,21,14.32Zm-2.46-5.58a18.44,18.44,0,0,0-8,0c-.8.21-1.29.4-1.29.52s.49.32,1.29.53a18.44,18.44,0,0,0,8,0c.79-.21,1.29-.4,1.29-.53S19.31,14,18.52,13.82ZM12,7a6.68,6.68,0,0,1-1,.35,19.64,19.64,0,0,1-8.63,0A6.68,6.68,0,0,1,1.4,7V8.19c0,.12.49.32,1.29.53a18.75,18.75,0,0,0,8,0c.8-.21,1.29-.41,1.29-.53Zm0,2.53a6.71,6.71,0,0,1-1,.34,19.64,19.64,0,0,1-8.63,0,6.71,6.71,0,0,1-1-.34v1.2c0,.13.49.32,1.29.53a18.44,18.44,0,0,0,8,0c.8-.21,1.29-.4,1.29-.53ZM10.72,5.13a18.75,18.75,0,0,0-8,0c-.8.21-1.29.4-1.29.53s.49.32,1.29.53a18.44,18.44,0,0,0,8,0C11.52,6,12,5.79,12,5.66S11.52,5.34,10.72,5.13Z" transform="translate(-0.23 -2.46)"/>
  </g>
</svg>
