<svg id="Capa_1" data-name="Capa 1" xmlns="http://www.w3.org/2000/svg" width="23.53" height="19.08" viewBox="0 0 23.53 19.08">
  <defs>
    <style>
      .cls-1 {
        fill: #13161f;
      }
    </style>
  </defs>
  <g id="Layer_1" data-name="Layer 1">
    <path class="cls-1" d="M10.77,1.54c1.33.35,2.15.92,2.17,1.64V8.25c0,1-1.4,1.46-2.17,1.67a19.64,19.64,0,0,1-8.63,0C.83,9.54,0,9,0,8.27V3.18c0-.72.83-1.29,2.16-1.64A19.55,19.55,0,0,1,10.77,1.54ZM17,4.84a.6.6,0,0,1,1-.66l.49.71,2-2.38a.58.58,0,0,1,.83,0,.58.58,0,0,1,.07.78l-2.48,3a.59.59,0,0,1-.83.1.47.47,0,0,1-.1-.1ZM19.17,0a4.38,4.38,0,1,1-4.4,4.38A4.38,4.38,0,0,1,19.17,0Zm0,1.18a3.2,3.2,0,1,0,3.2,3.2,3.2,3.2,0,0,0-3.2-3.2Zm.41,15.76V15.73a5.89,5.89,0,0,1-1,.34,19.34,19.34,0,0,1-8.63,0,5.13,5.13,0,0,1-1-.34v1.21c0,.12.49.31,1.29.52a18.3,18.3,0,0,0,8,0C19.08,17.25,19.58,17.06,19.58,16.94Zm0-2.53V13.2a5.93,5.93,0,0,1-1,.35,19.64,19.64,0,0,1-8.63,0,5.16,5.16,0,0,1-1-.35v1.21c0,.13.49.32,1.29.53a18.3,18.3,0,0,0,8,0C19.08,14.73,19.58,14.54,19.58,14.41Zm1.19,2.53c0,1-1.4,1.46-2.16,1.66a19.64,19.64,0,0,1-8.63,0c-.79-.2-2.21-.69-2.21-1.66V11.86c0-.72.84-1.29,2.17-1.64a19.64,19.64,0,0,1,8.63,0c1.34.32,2.2.92,2.2,1.64Zm-2.46-5.58a18.3,18.3,0,0,0-8,0c-.8.21-1.29.4-1.29.52s.49.32,1.29.53a18.3,18.3,0,0,0,8,0c.79-.21,1.29-.4,1.29-.53s-.52-.34-1.31-.52ZM11.77,4.54a7,7,0,0,1-1,.35,19.64,19.64,0,0,1-8.63,0,6.6,6.6,0,0,1-1-.35V5.73c0,.12.49.32,1.29.53a18.61,18.61,0,0,0,8,0c.8-.21,1.29-.41,1.29-.53Zm0,2.53a6.93,6.93,0,0,1-1,.34,19.64,19.64,0,0,1-8.63,0,6.93,6.93,0,0,1-1-.34v1.2c0,.13.49.32,1.29.53a18.3,18.3,0,0,0,8,0c.8-.21,1.29-.4,1.29-.53Zm-1.28-4.4a18.61,18.61,0,0,0-8,0c-.8.21-1.29.4-1.29.53s.49.32,1.29.53a18.3,18.3,0,0,0,8,0c.8-.19,1.28-.4,1.28-.53S11.29,2.88,10.49,2.67Z" transform="translate(0 0)"/>
  </g>
</svg>
