<svg id="icon" xmlns="http://www.w3.org/2000/svg" width="422.92" height="472.05" viewBox="0 0 422.92 472.05">
  <defs>
    <style>
      .cls-1 {
        fill: #13161f;
      }
    </style>
  </defs>
  <path class="cls-1" d="M417.18,33.85H338.12L240.65,2.05a41.43,41.43,0,0,0-35.31,4.54L146.61,44.32A5.73,5.73,0,0,0,152.8,54l58.73-37.68a29.93,29.93,0,0,1,25.56-3.24l98.37,32a5.6,5.6,0,0,0,1.77.28h74.23v96.31H368.81a5.75,5.75,0,0,0-5.09,3.1,57.6,57.6,0,0,1-27.93,24.08V143.05c9.19-3.92,19-10.74,25.26-22.63a5.75,5.75,0,1,0-10-5.75c-.07.12-.14.25-.2.38h0c-10.9,20.84-38,21.77-38.15,21.77-36.3,0-46.78-25.34-47.2-26.39a5.74,5.74,0,0,0-5.35-3.68H206.32a15.31,15.31,0,1,1-.84-30.61h65.14a5.74,5.74,0,1,0,.48-11.47,3.84,3.84,0,0,0-.48,0h-64.3a26.78,26.78,0,0,0-1,53.55H256.6c4.79,8.79,20.13,30.07,56.26,30.07a61.52,61.52,0,0,0,11.46-1.59v85a8.48,8.48,0,0,1-8.46,8.46H19.93a8.49,8.49,0,0,1-8.47-8.44V84.6a8.48,8.48,0,0,1,8.46-8.46H166.15a5.74,5.74,0,1,0,.48-11.47,3.84,3.84,0,0,0-.48,0H19.93A20,20,0,0,0,0,84.6V231.72a20,20,0,0,0,19.93,19.93H315.86a20,20,0,0,0,19.93-19.93V181c20.56-6.55,32.07-21.38,36.27-27.87h45.12a5.74,5.74,0,0,0,5.74-5.73V39.59A5.74,5.74,0,0,0,417.18,33.85Z" transform="translate(0 0)"/>
  <path class="cls-1" d="M38.89,188.38V127.93a30.72,30.72,0,0,0,24.37-24.37h97.93a5.74,5.74,0,0,0,0-11.47H58.07a5.74,5.74,0,0,0-5.74,5.74,19.19,19.19,0,0,1-19.16,19.22h0a5.73,5.73,0,0,0-5.7,5.69v70.84a5.75,5.75,0,0,0,5.73,5.73h0a19.21,19.21,0,0,1,19.17,19.18,5.75,5.75,0,0,0,5.73,5.73H277.72a5.74,5.74,0,0,0,5.74-5.72h0a19.21,19.21,0,0,1,19.17-19.18,5.74,5.74,0,0,0,5.74-5.72h0V167.66a5.74,5.74,0,1,0-11.47-.48,3.84,3.84,0,0,0,0,.48v20.72a30.75,30.75,0,0,0-24.37,24.37H63.26A30.75,30.75,0,0,0,38.89,188.38Z" transform="translate(0 0)"/>
  <path class="cls-1" d="M160.36,139.29h13.8a5.74,5.74,0,0,0,0-11.47h-4.51v-3.69a5.74,5.74,0,1,0-11.47-.48,3.84,3.84,0,0,0,0,.48V128a18,18,0,0,0,2.18,35.93h7.1a6.58,6.58,0,0,1,0,13.16H153.68a5.74,5.74,0,1,0-.48,11.47h5v3.69a5.74,5.74,0,0,0,11.47,0v-3.86a18,18,0,0,0-2.21-35.93h-7.1a6.57,6.57,0,0,1-.56-13.13h.56Z" transform="translate(0 0)"/>
  <path class="cls-1" d="M100.69,154.11a5.77,5.77,0,0,0-1.68,4,5.35,5.35,0,0,0,.12,1.13,5,5,0,0,0,.33,1.06,5.64,5.64,0,0,0,1.23,1.86,5.94,5.94,0,0,0,.87.72,5.27,5.27,0,0,0,1,.52,6.77,6.77,0,0,0,1.08.34,6,6,0,0,0,1.12.1,5.79,5.79,0,0,0,4-1.68,5.38,5.38,0,0,0,.72-.86,7.34,7.34,0,0,0,.53-1,8.06,8.06,0,0,0,.32-1.06,5.35,5.35,0,0,0,.11-1.13,5.73,5.73,0,0,0-9.79-4Z" transform="translate(0 0)"/>
  <path class="cls-1" d="M226.27,161.35a6.56,6.56,0,0,0,.72.86,5.71,5.71,0,0,0,8.81-.86,5.31,5.31,0,0,0,.53-1,5,5,0,0,0,.33-1.06,5.17,5.17,0,0,0,.12-1.11,5.74,5.74,0,1,0-11.47-.48h0a3.84,3.84,0,0,0,0,.48,6,6,0,0,0,.11,1.11,6.51,6.51,0,0,0,.33,1.06A7.29,7.29,0,0,0,226.27,161.35Z" transform="translate(0 0)"/>
  <path class="cls-1" d="M371,297.69a27.18,27.18,0,0,0-36.66,2.82L298,339.72a5.74,5.74,0,0,0,8.11,8.13c.11-.11.21-.22.31-.34l36.27-39.21a15.57,15.57,0,0,1,23.62,20.26c-.05.05-.09.11-.14.17L303.07,406a28.94,28.94,0,0,1-18.3,10.35L162.55,434a40.9,40.9,0,0,0-29.77,20.58l-3.34,6H17L75.25,374.5a81.94,81.94,0,0,1,76.89-35.77,130.36,130.36,0,0,1,28.93,6.39,59.55,59.55,0,0,0,19.83,3.48h58.45a16.92,16.92,0,0,1,16.9,16.9A18.26,18.26,0,0,1,258,383.74H204.46a37.55,37.55,0,0,0-24,8.66l-12.58,10.44a5.74,5.74,0,0,0,7.33,8.83l12.57-10.44a26.12,26.12,0,0,1,16.62-6H258a29.75,29.75,0,0,0,29.71-29.71,28.41,28.41,0,0,0-28.37-28.37H200.9a48.18,48.18,0,0,1-16-2.83,141.59,141.59,0,0,0-31.49-7,93.38,93.38,0,0,0-87.66,40.73l-64.29,95a5.74,5.74,0,0,0,4.75,9H132.82a5.71,5.71,0,0,0,5-3l5-9a29.4,29.4,0,0,1,21.39-14.78l122.25-17.62A40.36,40.36,0,0,0,312,413.21L375.14,336a27,27,0,0,0-3.75-38h0l-.37-.3Z" transform="translate(0 0)"/>
</svg>
