<svg id="icon" xmlns="http://www.w3.org/2000/svg" width="422.92" height="472.05" viewBox="0 0 422.92 472.05">
  <defs>
    <style>
      .cls-1 {
        fill: #fff;
      }
    </style>
  </defs>
  <path class="cls-1" d="M461.72,53.8H382.66L285.19,22a41.43,41.43,0,0,0-35.31,4.54L191.15,64.27a5.73,5.73,0,0,0,6.19,9.65l58.73-37.68A29.93,29.93,0,0,1,281.63,33L380,65a5.6,5.6,0,0,0,1.77.28H456v96.31H413.35a5.75,5.75,0,0,0-5.09,3.1,57.64,57.64,0,0,1-27.93,24.08V163c9.19-3.92,19-10.74,25.26-22.63A5.75,5.75,0,1,0,395.43,135h0c-10.9,20.84-38,21.77-38.15,21.77-36.3,0-46.78-25.34-47.2-26.39a5.74,5.74,0,0,0-5.35-3.68H250.86a15.31,15.31,0,1,1-.78-30.61q.39,0,.78,0h64.3a5.74,5.74,0,0,0,.48-11.47,3.84,3.84,0,0,0-.48,0h-64.3a26.78,26.78,0,0,0-1,53.55c.35,0,.69,0,1,0h50.28c4.79,8.79,20.13,30.07,56.26,30.07a61.52,61.52,0,0,0,11.46-1.59v85a8.48,8.48,0,0,1-8.46,8.46H64.47A8.49,8.49,0,0,1,56,251.67V104.55a8.48,8.48,0,0,1,8.46-8.46H210.69a5.74,5.74,0,0,0,.48-11.47,3.84,3.84,0,0,0-.48,0H64.47a20,20,0,0,0-19.93,19.93V251.67A20,20,0,0,0,64.47,271.6H360.4a20,20,0,0,0,19.93-19.93V200.92c20.56-6.55,32.07-21.38,36.27-27.87h45.12a5.74,5.74,0,0,0,5.74-5.73V59.54A5.74,5.74,0,0,0,461.72,53.8Z" transform="translate(-44.54 -19.95)"/>
  <path class="cls-1" d="M83.43,208.33V147.88a30.72,30.72,0,0,0,24.37-24.37h97.93a5.74,5.74,0,0,0,0-11.47H102.61a5.74,5.74,0,0,0-5.74,5.74A19.19,19.19,0,0,1,77.71,137h0a5.73,5.73,0,0,0-5.7,5.69v70.84a5.74,5.74,0,0,0,5.73,5.73h0a19.21,19.21,0,0,1,19.17,19.18,5.74,5.74,0,0,0,5.73,5.73H322.26a5.74,5.74,0,0,0,5.74-5.72h0a19.21,19.21,0,0,1,19.17-19.18,5.74,5.74,0,0,0,5.74-5.72h0V187.61a5.74,5.74,0,0,0-11.47-.48,3.84,3.84,0,0,0,0,.48v20.72a30.75,30.75,0,0,0-24.37,24.37H107.8A30.75,30.75,0,0,0,83.43,208.33Z" transform="translate(-44.54 -19.95)"/>
  <path class="cls-1" d="M204.9,159.24h13.8a5.74,5.74,0,0,0,0-11.47h-4.51v-3.69a5.74,5.74,0,0,0-11.47-.48,3.84,3.84,0,0,0,0,.48v3.83a18,18,0,0,0,2.18,35.93H212A6.58,6.58,0,1,1,212,197H198.22a5.74,5.74,0,0,0-.48,11.47h5v3.69a5.74,5.74,0,0,0,11.47,0V208.3A18,18,0,0,0,212,172.37h-7.1a6.57,6.57,0,1,1-.51-13.13,4.34,4.34,0,0,1,.51,0Z" transform="translate(-44.54 -19.95)"/>
  <path class="cls-1" d="M145.23,174.06a5.77,5.77,0,0,0-1.68,4,5.35,5.35,0,0,0,.12,1.13,5,5,0,0,0,.33,1.06,5.73,5.73,0,0,0,1.23,1.86,5.94,5.94,0,0,0,.87.72,5.59,5.59,0,0,0,1,.52,6.77,6.77,0,0,0,1.08.34,6,6,0,0,0,1.12.1,5.8,5.8,0,0,0,4-1.68,5.38,5.38,0,0,0,.72-.86,7.34,7.34,0,0,0,.53-1,8.06,8.06,0,0,0,.32-1.06,5.35,5.35,0,0,0,.11-1.13,5.73,5.73,0,0,0-9.79-4Z" transform="translate(-44.54 -19.95)"/>
  <path class="cls-1" d="M270.81,181.3a6.56,6.56,0,0,0,.72.86,5.71,5.71,0,0,0,8.81-.86,5.31,5.31,0,0,0,.53-1,5,5,0,0,0,.33-1.06,5.17,5.17,0,0,0,.12-1.11,5.74,5.74,0,0,0-11.47-.48,3.84,3.84,0,0,0,0,.48,6,6,0,0,0,.11,1.11,6.51,6.51,0,0,0,.33,1.06A7.29,7.29,0,0,0,270.81,181.3Z" transform="translate(-44.54 -19.95)"/>
  <path class="cls-1" d="M415.51,317.64a27.18,27.18,0,0,0-36.66,2.82l-36.27,39.21a5.74,5.74,0,1,0,8.11,8.13c.11-.11.21-.22.31-.34l36.27-39.21a15.57,15.57,0,0,1,23.62,20.26c-.05.05-.09.11-.14.17L347.61,425.9a28.94,28.94,0,0,1-18.3,10.35L207.09,453.94a40.9,40.9,0,0,0-29.77,20.58l-3.34,6H61.55l58.24-86.07a81.94,81.94,0,0,1,76.89-35.77,130.24,130.24,0,0,1,28.93,6.39,59.55,59.55,0,0,0,19.83,3.48h58.45a16.92,16.92,0,0,1,16.9,16.9,18.26,18.26,0,0,1-18.24,18.24H249a37.55,37.55,0,0,0-24,8.66l-12.58,10.44a5.74,5.74,0,0,0,7.33,8.83l12.57-10.44a26.12,26.12,0,0,1,16.62-6h53.59a29.75,29.75,0,0,0,29.71-29.71,28.41,28.41,0,0,0-28.37-28.37H245.44a48.18,48.18,0,0,1-16-2.83,141.59,141.59,0,0,0-31.49-7A93.38,93.38,0,0,0,110.29,388L46,483a5.74,5.74,0,0,0,4.75,9H177.36a5.72,5.72,0,0,0,5-3l5-9a29.4,29.4,0,0,1,21.39-14.78L331,447.6a40.36,40.36,0,0,0,25.54-14.44l63.14-77.22a27,27,0,0,0-3.75-38l-.37-.3Z" transform="translate(-44.54 -19.95)"/>
</svg>
