<svg id="Capa_1" data-name="Capa 1" xmlns="http://www.w3.org/2000/svg" viewBox="0 0 21.33 21.33"><defs><style>.cls-1{fill:#fff;}</style></defs><path class="cls-1" d="M9.64,14.57a18.18,18.18,0,0,0,7.79,7.83l2.63-2.64a1.2,1.2,0,0,1,1.19-.26,14.56,14.56,0,0,0,4.23.67,1.17,1.17,0,0,1,1.19,1.19v4.12a1.17,1.17,0,0,1-1.19,1.18A20.14,20.14,0,0,1,5.33,6.52,1.17,1.17,0,0,1,6.52,5.33h4.16a1.19,1.19,0,0,1,1.18,1.19,13.48,13.48,0,0,0,.67,4.23,1.16,1.16,0,0,1-.3,1.22l-2.59,2.6Z" transform="translate(-5.33 -5.33)"/></svg>