<svg id="icon" xmlns="http://www.w3.org/2000/svg" width="469.52" height="469.56" viewBox="0 0 469.52 469.56">
  <defs>
    <style>
      .cls-1 {
        fill: #ef7c19;
      }
    </style>
  </defs>
  <path class="cls-1" d="M457,114.13a5.73,5.73,0,0,0-1.4-8l0,0L417,79.32a6.17,6.17,0,0,1-2.59-4.17A6.6,6.6,0,0,1,415.78,70c10-12.91,8.54-25,5.56-32.92A25,25,0,0,0,397.91,21.2H270.73a23,23,0,0,0-23,23V239.85a5.74,5.74,0,0,0,11.47.48,3.84,3.84,0,0,0,0-.48V44.19a11.5,11.5,0,0,1,11.49-11.48H397.91a13.49,13.49,0,0,1,12.7,8.47c2.83,7.49,1.52,14.84-3.9,21.83a18.27,18.27,0,0,0-3.63,13.87,17.54,17.54,0,0,0,7.38,11.85L449,115.56a5.73,5.73,0,0,0,8-1.4Z" transform="translate(-21.24 -21.2)"/>
  <path class="cls-1" d="M443.45,45.81a5.74,5.74,0,0,0-9.91,5.79L475.86,124a25.1,25.1,0,0,1,3.43,12.65V316.22a11.5,11.5,0,0,1-11.48,11.49H455.57a5.74,5.74,0,0,0,0,11.47h12.24a23,23,0,0,0,22.95-23V136.68a36.67,36.67,0,0,0-5-18.44Z" transform="translate(-21.24 -21.2)"/>
  <path class="cls-1" d="M408.1,260.84H49.53a28.32,28.32,0,0,0-28.29,28.29V462.47a28.32,28.32,0,0,0,28.29,28.29H408.1a28.32,28.32,0,0,0,28.29-28.29V289.13A28.32,28.32,0,0,0,408.1,260.84Zm16.82,201.63a16.84,16.84,0,0,1-16.82,16.82H49.53a16.84,16.84,0,0,1-16.82-16.82V289.13a16.84,16.84,0,0,1,16.82-16.82H408.1a16.83,16.83,0,0,1,16.82,16.82Z" transform="translate(-21.24 -21.2)"/>
  <path class="cls-1" d="M396.53,326a25.29,25.29,0,0,1-25.27-25.27,5.74,5.74,0,0,0-5.74-5.73H92.11a5.75,5.75,0,0,0-5.73,5.73A25.3,25.3,0,0,1,61.11,326a5.74,5.74,0,0,0-5.73,5.73h0v88.18a5.74,5.74,0,0,0,5.73,5.73h0a25.3,25.3,0,0,1,25.27,25.27,5.74,5.74,0,0,0,5.73,5.73H365.52a5.74,5.74,0,0,0,5.74-5.72h0a25.3,25.3,0,0,1,25.27-25.27,5.75,5.75,0,0,0,5.73-5.73V331.71A5.75,5.75,0,0,0,396.53,326Zm-5.74,88.63a36.81,36.81,0,0,0-30.55,30.55H97.4A36.83,36.83,0,0,0,66.85,414.6V337A36.83,36.83,0,0,0,97.4,306.44H360.24A36.82,36.82,0,0,0,390.79,337Z" transform="translate(-21.24 -21.2)"/>
  <path class="cls-1" d="M238.2,370.06h-8.86a9.58,9.58,0,1,1,0-19.16h17.17a5.74,5.74,0,0,0,.48-11.47h-7.48v-6a5.74,5.74,0,0,0-11.47,0v6.06a21,21,0,1,0,1.31,42h8.86a9.58,9.58,0,0,1,0,19.16H221a5.74,5.74,0,0,0,0,11.47h7v6a5.74,5.74,0,0,0,11.47.48,3.84,3.84,0,0,0,0-.48v-6.06a21,21,0,1,0-1.3-42h0Z" transform="translate(-21.24 -21.2)"/>
  <path class="cls-1" d="M312.71,373.61a4.36,4.36,0,0,0-.53-1,4.92,4.92,0,0,0-.7-.88,5.47,5.47,0,0,0-.88-.71,5.64,5.64,0,0,0-1-.53,4.89,4.89,0,0,0-1.07-.32,5.29,5.29,0,0,0-2.24,0,4.89,4.89,0,0,0-1.07.32,5.31,5.31,0,0,0-1,.53,5.24,5.24,0,0,0-1.59,1.59,5.31,5.31,0,0,0-.53,1,4.89,4.89,0,0,0-.32,1.07,5.25,5.25,0,0,0-.11,1.12,5.77,5.77,0,0,0,1.67,4.06,4.92,4.92,0,0,0,.88.7,4.36,4.36,0,0,0,1,.53,4.92,4.92,0,0,0,1.07.33,5.26,5.26,0,0,0,1.12.12,5.77,5.77,0,0,0,4-1.68,5.53,5.53,0,0,0,.72-.88,4.79,4.79,0,0,0,.53-1,5.76,5.76,0,0,0,.33-1.07,6.32,6.32,0,0,0,0-2.24A5.52,5.52,0,0,0,312.71,373.61Z" transform="translate(-21.24 -21.2)"/>
  <path class="cls-1" d="M155.52,373.61a6.38,6.38,0,0,0-.53-1,5.53,5.53,0,0,0-.72-.88,5.9,5.9,0,0,0-.86-.71,6.38,6.38,0,0,0-1-.53,5.51,5.51,0,0,0-1.07-.32,5.33,5.33,0,0,0-2.25,0,5.51,5.51,0,0,0-1.07.32,5.64,5.64,0,0,0-1,.53,4.85,4.85,0,0,0-.86.71,4.69,4.69,0,0,0-.72.88,5.68,5.68,0,0,0-.86,2.06,6,6,0,0,0-.11,1.12,5.75,5.75,0,0,0,1.69,4.06,5.73,5.73,0,0,0,1.86,1.23,5.62,5.62,0,0,0,6.21-1.23,5.9,5.9,0,0,0,1.25-1.87,5.7,5.7,0,0,0,.31-1.07,5.26,5.26,0,0,0,.12-1.12,4.69,4.69,0,0,0-.12-1.12A4.85,4.85,0,0,0,155.52,373.61Z" transform="translate(-21.24 -21.2)"/>
  <path class="cls-1" d="M297.92,189.64a5.74,5.74,0,0,0,5.73,5.73h65.11a5.74,5.74,0,0,0,0-11.47H303.65A5.74,5.74,0,0,0,297.92,189.64Z" transform="translate(-21.24 -21.2)"/>
  <path class="cls-1" d="M430.15,195.37a5.74,5.74,0,0,0,.48-11.47,3.84,3.84,0,0,0-.48,0H401.94a5.74,5.74,0,0,0,0,11.47Z" transform="translate(-21.24 -21.2)"/>
  <path class="cls-1" d="M359.31,225.48a5.74,5.74,0,0,0,5.74,5.74h65.1a5.74,5.74,0,0,0,.48-11.47H365.05A5.74,5.74,0,0,0,359.31,225.48Z" transform="translate(-21.24 -21.2)"/>
  <path class="cls-1" d="M303.65,231.22h28.21a5.74,5.74,0,0,0,.48-11.47H303.65a5.74,5.74,0,0,0,0,11.47Z" transform="translate(-21.24 -21.2)"/>
  <path class="cls-1" d="M341.9,151.74a5.73,5.73,0,0,0,8.1,0h0l41.85-41.86a5.73,5.73,0,1,0-8.11-8.11h0L341.9,143.63a5.73,5.73,0,0,0,0,8.1Z" transform="translate(-21.24 -21.2)"/>
  <path class="cls-1" d="M346.94,112.55a5.73,5.73,0,1,0,0-11.46,6,6,0,0,0-1.11.11,5.18,5.18,0,0,0-1.08.33,6.27,6.27,0,0,0-1,.51,7.56,7.56,0,0,0-.87.72,5.72,5.72,0,0,0,0,8.09l0,0A5.74,5.74,0,0,0,346.94,112.55Z" transform="translate(-21.24 -21.2)"/>
  <path class="cls-1" d="M382.05,149.87a6.07,6.07,0,0,0,.71.88,7.2,7.2,0,0,0,.86.71,6.33,6.33,0,0,0,1,.52,6.74,6.74,0,0,0,1.08.33,6,6,0,0,0,1.12.11,6.1,6.1,0,0,0,1.13-.11A5.5,5.5,0,0,0,389,152a5.27,5.27,0,0,0,1-.52,5.87,5.87,0,0,0,.87-.71,5.7,5.7,0,0,0,.06-8.06l-.06-.06a5.73,5.73,0,0,0-1.86-1.23,6.62,6.62,0,0,0-1.07-.33,6.08,6.08,0,0,0-2.25,0,6.74,6.74,0,0,0-1.08.33,5.73,5.73,0,0,0-1.86,1.23,5.47,5.47,0,0,0-.71.88,5.64,5.64,0,0,0-.53,1,4.92,4.92,0,0,0-.33,1.07,5.29,5.29,0,0,0,0,2.24,4.92,4.92,0,0,0,.33,1.07A5.64,5.64,0,0,0,382.05,149.87Z" transform="translate(-21.24 -21.2)"/>
</svg>
