<svg id="Layer_1" data-name="Layer 1" xmlns="http://www.w3.org/2000/svg" viewBox="0 0 505.3 413.43"><defs><style>.cls-1{fill:#fff;}</style></defs><path class="cls-1" d="M4,440.5c55.6,5,105.7-9,151.3-43.2-47.7-4.2-79.6-28-97.4-72.6,15.6,1.9,30.2,2.4,45.7-1.8-51.4-16-78.8-49.6-82.5-103.8,15.4,7.2,29.9,12.4,47,12.6-30.5-22.9-46.1-52.6-45.5-90A97,97,0,0,1,36.6,93C93.1,159.1,164,195.7,251.3,201.8c-.5-3.8-.8-6.8-1.2-9.9-7.2-55.4,28.8-105.8,83.8-116.3,34.5-6.6,65,2.5,90.8,26.3,4,3.6,7.4,4.4,12.4,3.1a249.39,249.39,0,0,0,57.7-22.5c-7.1,23.4-21.7,41-41.5,55.8,4.5-.8,9.1-1.4,13.6-2.3,4.7-1,9.4-2.1,14.1-3.4,4.5-1.2,8.9-2.6,13.3-4.1s9-3.2,14.3-4.1c-2.6,3.6-5.1,7.4-7.9,10.9A233.14,233.14,0,0,1,461,174.4a7.89,7.89,0,0,0-2.7,5.6,297,297,0,0,1-15.7,103.7c-22.6,66.2-62,119.8-121.1,158.1-29.2,18.9-61.1,31.3-95.2,38.5a314.41,314.41,0,0,1-101.9,4.4,282.27,282.27,0,0,1-97.3-29.9c-8.1-4.1-15.9-8.7-23.8-13.1A7.46,7.46,0,0,0,4,440.5Z" transform="translate(-3.3 -73.51)"/></svg>